<svg data-v-fde0c5aa="" xmlns="http://www.w3.org/2000/svg" viewBox="0 0 300 300" class="iconLeft"><!----><defs data-v-fde0c5aa=""><!----></defs><rect data-v-fde0c5aa="" fill="transparent" x="0" y="0" width="300px" height="300px" class="logo-background-square"></rect><defs data-v-fde0c5aa=""><!----></defs><g data-v-fde0c5aa="" id="a5a0fae3-0457-4042-8138-fc4eab777fcf" fill="#000000" transform="matrix(1.3701349852476852,0,0,1.3701349852476852,72.29150195774977,137.97021421539392)"><path d="M7.21 13.75L1.34 13.75L1.34 3.95L2.55 3.95L2.55 12.59L7.21 12.59L7.21 13.75ZM16.07 9.86L16.07 9.86Q16.07 10.32 16.03 10.64L16.03 10.64L11.03 10.64Q11.17 11.68 11.71 12.26Q12.25 12.84 13.12 12.84L13.12 12.84Q14.03 12.84 14.78 12.22L14.78 12.22L15.46 13.01Q14.45 13.92 13.08 13.92L13.08 13.92Q11.58 13.92 10.69 12.85Q9.80 11.79 9.80 10.16L9.80 10.16Q9.80 8.41 10.69 7.42Q11.58 6.43 13.08 6.43L13.08 6.43Q14.39 6.43 15.23 7.29Q16.07 8.16 16.07 9.86ZM11.00 9.60L11.00 9.60L14.88 9.60Q14.85 8.47 14.32 7.98Q13.79 7.49 13.08 7.49L13.08 7.49Q12.12 7.49 11.60 8.05Q11.07 8.61 11.00 9.60ZM24.70 9.86L24.70 9.86Q24.70 10.32 24.65 10.64L24.65 10.64L19.66 10.64Q19.80 11.68 20.34 12.26Q20.87 12.84 21.74 12.84L21.74 12.84Q22.65 12.84 23.41 12.22L23.41 12.22L24.08 13.01Q23.07 13.92 21.70 13.92L21.70 13.92Q20.20 13.92 19.31 12.85Q18.42 11.79 18.42 10.16L18.42 10.16Q18.42 8.41 19.31 7.42Q20.20 6.43 21.70 6.43L21.70 6.43Q23.02 6.43 23.86 7.29Q24.70 8.16 24.70 9.86ZM19.63 9.60L19.63 9.60L23.51 9.60Q23.48 8.47 22.95 7.98Q22.41 7.49 21.70 7.49L21.70 7.49Q20.75 7.49 20.22 8.05Q19.70 8.61 19.63 9.60ZM30.83 13.92L30.83 13.92Q29.01 13.92 29.01 12.12L29.01 12.12L29.01 7.66L27.37 7.66L27.37 6.59L29.01 6.59L29.01 4.23L30.20 3.64L30.20 6.59L32.61 6.59L32.61 7.66L30.20 7.66L30.20 11.75Q30.20 12.28 30.41 12.55Q30.63 12.82 31.23 12.82L31.23 12.82Q31.89 12.82 32.55 12.43L32.55 12.43L32.41 13.59Q31.79 13.92 30.83 13.92ZM38.96 13.92L38.96 13.92Q37.56 13.92 36.75 12.93Q35.94 11.94 35.94 10.18Q35.94 8.41 36.76 7.42Q37.59 6.43 39.05 6.43L39.05 6.43Q40.99 6.43 41.62 8.08L41.62 8.08L40.52 8.48Q40.10 7.52 39.03 7.52L39.03 7.52Q38.08 7.52 37.62 8.22Q37.16 8.92 37.16 10.18Q37.16 11.44 37.62 12.12Q38.08 12.81 39.00 12.81L39.00 12.81Q40.22 12.81 40.60 11.73L40.60 11.73L41.69 12.12Q41.41 12.98 40.70 13.45Q39.98 13.92 38.96 13.92ZM49.87 12.91Q48.96 13.92 47.43 13.92Q45.91 13.92 45.00 12.92Q44.09 11.93 44.09 10.18L44.09 10.18Q44.09 8.44 45.00 7.43Q45.91 6.43 47.43 6.43L47.43 6.43Q48.97 6.43 49.88 7.42Q50.78 8.41 50.78 10.16L50.78 10.16Q50.78 11.90 49.87 12.91ZM47.43 12.81L47.43 12.81Q48.44 12.81 49.00 12.10Q49.56 11.40 49.56 10.16L49.56 10.16Q49.56 8.92 49.01 8.22Q48.47 7.52 47.43 7.52Q46.40 7.52 45.85 8.21Q45.30 8.90 45.30 10.18L45.30 10.18Q45.30 11.41 45.86 12.11Q46.41 12.81 47.43 12.81ZM55.83 13.92L55.83 13.92Q54.40 13.92 53.58 12.91Q52.75 11.90 52.75 10.16Q52.75 8.43 53.59 7.43Q54.42 6.43 55.82 6.43L55.82 6.43Q56.97 6.43 57.75 7.10L57.75 7.10L57.75 4.21L58.94 3.64L58.94 13.75L57.75 13.75L57.75 13.16Q57.05 13.92 55.83 13.92ZM55.99 12.81L55.99 12.81Q57.19 12.81 57.75 11.83L57.75 11.83L57.75 8.44Q57.13 7.52 55.97 7.52L55.97 7.52Q55.01 7.52 54.49 8.20Q53.97 8.89 53.97 10.16L53.97 10.16Q53.97 11.31 54.52 12.06Q55.06 12.81 55.99 12.81ZM67.82 9.86L67.82 9.86Q67.82 10.32 67.77 10.64L67.77 10.64L62.78 10.64Q62.92 11.68 63.46 12.26Q63.99 12.84 64.86 12.84L64.86 12.84Q65.77 12.84 66.53 12.22L66.53 12.22L67.20 13.01Q66.19 13.92 64.82 13.92L64.82 13.92Q63.32 13.92 62.43 12.85Q61.54 11.79 61.54 10.16L61.54 10.16Q61.54 8.41 62.43 7.42Q63.32 6.43 64.82 6.43L64.82 6.43Q66.14 6.43 66.98 7.29Q67.82 8.16 67.82 9.86ZM62.75 9.60L62.75 9.60L66.63 9.60Q66.60 8.47 66.07 7.98Q65.53 7.49 64.82 7.49L64.82 7.49Q63.87 7.49 63.34 8.05Q62.82 8.61 62.75 9.60ZM82.53 13.75L81.33 13.75L81.33 5.11L78.51 5.11L78.51 3.95L85.34 3.95L85.34 5.11L82.53 5.11L82.53 13.75ZM92.32 6.43L92.32 6.43Q93.31 6.43 93.88 6.76L93.88 6.76L93.88 9.24L92.69 9.24L92.69 7.62Q92.55 7.60 92.26 7.60L92.26 7.60Q91.17 7.60 90.42 8.13Q89.67 8.67 89.67 9.63L89.67 9.63L89.67 12.68L91.76 12.68L91.76 13.75L86.95 13.75L86.95 12.68L88.45 12.68L88.45 7.66L86.95 7.66L86.95 6.59L89.59 6.59L89.59 7.84Q89.95 7.20 90.73 6.81Q91.50 6.43 92.32 6.43ZM98.70 13.92L98.70 13.92Q97.54 13.92 96.84 13.29Q96.14 12.67 96.14 11.51Q96.14 10.35 96.93 9.74Q97.72 9.14 98.88 9.14L98.88 9.14Q99.95 9.14 100.81 9.60L100.81 9.60L100.81 9.06Q100.81 7.46 99.30 7.46L99.30 7.46Q98.20 7.46 97.03 8.22L97.03 8.22L96.68 7.22Q97.97 6.43 99.41 6.43L99.41 6.43Q99.88 6.43 100.28 6.53Q100.69 6.64 101.09 6.90Q101.49 7.15 101.72 7.69Q101.95 8.22 101.95 8.97L101.95 8.97L101.95 13.75L100.81 13.75L100.81 13.09Q99.92 13.92 98.70 13.92ZM98.85 12.88L98.85 12.88Q99.97 12.88 100.81 11.90L100.81 11.90L100.81 10.67Q99.99 10.16 99.02 10.16L99.02 10.16Q98.27 10.16 97.76 10.51Q97.26 10.85 97.26 11.51L97.26 11.51Q97.26 12.12 97.68 12.50Q98.10 12.88 98.85 12.88ZM107.95 13.92L107.95 13.92Q106.55 13.92 105.74 12.93Q104.93 11.94 104.93 10.18Q104.93 8.41 105.76 7.42Q106.58 6.43 108.04 6.43L108.04 6.43Q109.98 6.43 110.61 8.08L110.61 8.08L109.51 8.48Q109.09 7.52 108.02 7.52L108.02 7.52Q107.07 7.52 106.61 8.22Q106.15 8.92 106.15 10.18Q106.15 11.44 106.61 12.12Q107.07 12.81 108.00 12.81L108.00 12.81Q109.21 12.81 109.59 11.73L109.59 11.73L110.68 12.12Q110.40 12.98 109.69 13.45Q108.98 13.92 107.95 13.92ZM119.53 13.75L118.23 13.75L116.02 9.39L114.74 10.70L114.74 13.75L113.55 13.75L113.55 4.21L114.74 3.64L114.74 9.34L117.35 6.59L118.75 6.59L116.86 8.53L119.53 13.75ZM128.18 9.86L128.18 9.86Q128.18 10.32 128.14 10.64L128.14 10.64L123.14 10.64Q123.28 11.68 123.82 12.26Q124.36 12.84 125.23 12.84L125.23 12.84Q126.14 12.84 126.90 12.22L126.90 12.22L127.57 13.01Q126.56 13.92 125.19 13.92L125.19 13.92Q123.69 13.92 122.80 12.85Q121.91 11.79 121.91 10.16L121.91 10.16Q121.91 8.41 122.80 7.42Q123.69 6.43 125.19 6.43L125.19 6.43Q126.50 6.43 127.34 7.29Q128.18 8.16 128.18 9.86ZM123.12 9.60L123.12 9.60L126.99 9.60Q126.97 8.47 126.43 7.98Q125.90 7.49 125.19 7.49L125.19 7.49Q124.24 7.49 123.71 8.05Q123.19 8.61 123.12 9.60ZM135.44 6.43L135.44 6.43Q136.43 6.43 137.00 6.76L137.00 6.76L137.00 9.24L135.81 9.24L135.81 7.62Q135.67 7.60 135.38 7.60L135.38 7.60Q134.29 7.60 133.54 8.13Q132.79 8.67 132.79 9.63L132.79 9.63L132.79 12.68L134.88 12.68L134.88 13.75L130.07 13.75L130.07 12.68L131.57 12.68L131.57 7.66L130.07 7.66L130.07 6.59L132.71 6.59L132.71 7.84Q133.07 7.20 133.85 6.81Q134.62 6.43 135.44 6.43Z"></path></g><defs data-v-fde0c5aa=""><linearGradient data-v-fde0c5aa="" gradientTransform="rotate(25)" id="5e3b48ff-2d92-4311-87e9-0c96009b7b33" x1="0%" y1="0%" x2="100%" y2="0%"><stop data-v-fde0c5aa="" offset="0%" stop-color="#050922" stop-opacity="1"></stop><stop data-v-fde0c5aa="" offset="100%" stop-color="#6EE6C7" stop-opacity="1"></stop></linearGradient></defs><g data-v-fde0c5aa="" id="c888f8f3-f2bc-48d2-8729-f5e753aabd16" stroke="none" fill="url(#5e3b48ff-2d92-4311-87e9-0c96009b7b33)" transform="matrix(0.6602338401160892,0,0,0.6602338401160892,40,139.43625855814258)"><path d="M16 32c8.837 0 16-7.163 16-16S24.837 0 16 0 0 7.163 0 16s7.163 16 16 16zM8.858 6.858h2v14.283h14.283v2H8.858V6.858z"></path></g><!----></svg>